# This file uses centimeters as units for non-parametric coordinates.

mtllib MrBigOne.mtl
g default
v -0.164214 0.000000 0.164214
v 0.164214 0.000000 0.164214
v -0.164214 0.074432 0.164214
v 0.164214 0.074432 0.164214
v -0.164214 0.074432 -0.164214
v 0.164214 0.074432 -0.164214
v -0.164214 0.000000 -0.164214
v 0.164214 0.000000 -0.164214
v -0.103526 0.059849 0.103526
v 0.103526 0.059849 0.103526
v -0.103526 0.141127 0.103526
v 0.103526 0.141127 0.103526
v -0.103526 0.141127 -0.103526
v 0.103526 0.141127 -0.103526
v -0.103526 0.059849 -0.103526
v 0.103526 0.059849 -0.103526
v -0.132202 0.121058 0.151879
v 0.158017 0.121058 0.151879
v -0.132202 0.328560 0.151879
v 0.158017 0.328560 0.151879
v -0.132202 0.328560 -0.138340
v 0.158017 0.328560 -0.138340
v -0.132202 0.121058 -0.138340
v 0.158017 0.121058 -0.138340
v -0.063258 0.875876 0.064407
v 0.089074 0.875876 0.064407
v -0.063258 1.037589 0.030588
v 0.089074 1.037589 0.030588
v -0.063258 1.006406 -0.118519
v 0.089074 1.006406 -0.118519
v -0.063258 0.844693 -0.084699
v 0.089074 0.844693 -0.084699
v -0.076001 0.736084 0.090451
v 0.101816 0.736084 0.090451
v -0.076001 0.927184 0.064528
v 0.101816 0.927184 0.064528
v -0.076001 0.903283 -0.111675
v 0.101816 0.903283 -0.111675
v -0.076001 0.712182 -0.085752
v 0.101816 0.712182 -0.085752
v -0.109983 0.298469 0.127487
v 0.135798 0.298469 0.127487
v -0.109983 0.533982 0.131792
v 0.135798 0.533982 0.131792
v -0.109983 0.538473 -0.113948
v 0.135798 0.538473 -0.113948
v -0.109983 0.302961 -0.118252
v 0.135798 0.302961 -0.118252
v -0.089052 0.521295 0.114704
v 0.114868 0.521295 0.114704
v -0.089052 0.742116 0.102441
v 0.114868 0.742116 0.102441
v -0.089052 0.730809 -0.101165
v 0.114868 0.730809 -0.101165
v -0.089052 0.509988 -0.088902
v 0.114868 0.509988 -0.088902
v -0.084764 0.983789 0.058423
v 0.110579 0.983789 0.058423
v -0.084764 1.061039 0.044718
v 0.110579 1.061039 0.044718
v -0.084764 1.111972 -0.143868
v 0.110579 1.111972 -0.143868
v -0.084764 0.943801 -0.132783
v 0.110579 0.943801 -0.132783
v 0.034999 0.121058 0.338659
v 0.242502 0.121058 0.338659
v 0.034999 0.257288 0.338659
v 0.242502 0.257288 0.338659
v 0.034999 0.257288 0.131157
v 0.242502 0.257288 0.131157
v 0.034999 0.121058 0.131157
v 0.242502 0.121058 0.131157
v -0.034999 0.121058 0.338659
v -0.242502 0.121058 0.338659
v -0.242502 0.257288 0.338659
v -0.034999 0.257288 0.338659
v -0.242502 0.257288 0.131157
v -0.034999 0.257288 0.131157
v -0.242502 0.121058 0.131157
v -0.034999 0.121058 0.131157
vt 0.312012 0.672120
vt 0.312012 0.672120
vt 0.187947 0.625433
vt 0.187947 0.702811
vt 0.187947 0.672120
vt 0.312012 0.749498
vt 0.313069 0.625435
vt 0.312012 0.702811
vt 0.313069 0.749501
vt 0.437135 0.749501
vt 0.312012 0.672120
vt 0.312012 0.702811
vt 0.187947 0.672120
vt 0.187947 0.702811
vt 0.312012 0.672101
vt 0.312012 0.672101
vt 0.187947 0.702829
vt 0.187947 0.672101
vt 0.312012 0.702829
vt 0.312012 0.672101
vt 0.312012 0.702829
vt 0.187947 0.672101
vt 0.187947 0.702829
vt 0.280967 0.344432
vt 0.155685 0.344696
vt 0.156902 0.468497
vt 0.187947 0.625433
vt 0.312012 0.749498
vt 0.031620 0.344696
vt 0.155685 0.468761
vt 0.187947 0.625433
vt 0.312012 0.749498
vt 0.187947 0.749498
vt 0.280967 0.344432
vt 0.280967 0.468497
vt 0.156902 0.344432
vt 0.156902 0.468497
vt 0.280967 0.344432
vt 0.155685 0.344696
vt 0.156902 0.468497
vt 0.031620 0.344696
vt 0.155685 0.468761
vt 0.280967 0.344432
vt 0.280967 0.468497
vt 0.156902 0.344432
vt 0.156902 0.468497
vt 0.281120 0.469658
vt 0.155616 0.469298
vt 0.157055 0.593723
vt 0.187947 0.625433
vt 0.312012 0.749498
vt 0.031551 0.469298
vt 0.155616 0.593364
vt 0.281120 0.469658
vt 0.281120 0.593723
vt 0.157055 0.469658
vt 0.157055 0.593723
vt 0.281120 0.469658
vt 0.155616 0.469298
vt 0.157055 0.593723
vt 0.187947 0.625433
vt 0.312012 0.749498
vt 0.031551 0.469298
vt 0.155616 0.593364
vt 0.281120 0.469658
vt 0.281120 0.593723
vt 0.157055 0.469658
vt 0.157055 0.593723
vt 0.280967 0.344432
vt 0.155685 0.344696
vt 0.156902 0.468497
vt 0.187947 0.625433
vt 0.312012 0.749498
vt 0.031620 0.344696
vt 0.155685 0.468761
vt 0.280967 0.344432
vt 0.280967 0.468497
vt 0.156902 0.344432
vt 0.156902 0.468497
vt 0.155744 0.625061
vt 0.155744 0.687987
vt 0.031679 0.749126
vt 0.031679 0.750617
vt 0.155744 0.874682
vt 0.031679 0.625061
vt 0.155744 0.749126
vt 0.031679 0.625061
vt 0.155744 0.749126
vt 0.031679 0.749126
vt 0.155744 0.625061
vt 0.155744 0.749126
vt 0.031679 0.625061
vt 0.031679 0.749126
vt 0.437042 0.844122
vt 0.562035 0.843878
vt 0.312976 0.968187
vt 0.188220 0.844000
vt 0.312285 0.968065
vt 0.437970 0.843878
vt 0.562035 0.967943
vt 0.188220 0.844000
vt 0.312285 0.968065
vt 0.188220 0.968065
vt 0.437042 0.844122
vt 0.437042 0.968187
vt 0.312976 0.844122
vt 0.312976 0.968187
vt 0.312285 0.844000
vt 0.312976 0.844122
vt 0.437970 0.967943
vt 0.437970 0.843878
vt 0.562035 0.843878
vt 0.188220 0.968065
vt 0.562035 0.967943
vt 0.312285 0.844000
vt 0.437970 0.967943
vt 0.437042 0.968187
vt 0.155744 0.625061
vt 0.031679 0.625061
vt 0.031679 0.749126
vt 0.031679 0.687987
vt 0.155744 0.625061
vt 0.031679 0.874682
vt 0.155744 0.749211
vt 0.155744 0.750617
vt 0.031679 0.749211
vt 0.155744 0.749126
vt 0.156902 0.344432
vt 0.031620 0.468761
vt 0.031620 0.344696
vt 0.155685 0.344696
vt 0.187947 0.749498
vt 0.155685 0.468761
vt 0.312012 0.625433
vt 0.031620 0.468761
vt 0.280967 0.468497
vt 0.157055 0.469658
vt 0.031551 0.593364
vt 0.031551 0.469298
vt 0.155616 0.469298
vt 0.187947 0.749498
vt 0.155616 0.593364
vt 0.312012 0.625433
vt 0.031551 0.593364
vt 0.281120 0.593723
vt 0.157055 0.469658
vt 0.031551 0.593364
vt 0.031551 0.469298
vt 0.155616 0.469298
vt 0.187947 0.749498
vt 0.155616 0.593364
vt 0.312012 0.625433
vt 0.031551 0.593364
vt 0.281120 0.593723
vt 0.156902 0.344432
vt 0.031620 0.468761
vt 0.031620 0.344696
vt 0.155685 0.344696
vt 0.155685 0.468761
vt 0.031620 0.468761
vt 0.280967 0.468497
vt 0.312012 0.625433
vt 0.156902 0.344432
vt 0.031620 0.468761
vt 0.031620 0.344696
vt 0.155685 0.344696
vt 0.187947 0.749498
vt 0.155685 0.468761
vt 0.312012 0.625433
vt 0.031620 0.468761
vt 0.280967 0.468497
vt 0.187947 0.672101
vt 0.187947 0.702829
vt 0.187947 0.672101
vt 0.312012 0.672101
vt 0.312012 0.702829
vt 0.187947 0.702829
vt 0.312012 0.702829
vt 0.437135 0.625435
vt 0.187947 0.672120
vt 0.187947 0.702811
vt 0.187947 0.672120
vt 0.312012 0.672120
vt 0.187947 0.749498
vt 0.312012 0.702811
vt 0.312012 0.625433
vt 0.187947 0.702811
vt 0.312012 0.702811
vt 0.437970 0.843878
vt 0.562035 0.843878
vt 0.562035 0.967943
vt 0.437970 0.967943
vt 0.188220 0.844000
vt 0.312285 0.844000
vt 0.312285 0.968065
vt 0.188220 0.968065
vt 0.437970 0.843878
vt 0.562035 0.843878
vt 0.562035 0.967943
vt 0.437970 0.967943
vt 0.188220 0.844000
vt 0.312285 0.844000
vt 0.312285 0.968065
vt 0.188220 0.968065
vt 0.312976 0.844122
vt 0.437042 0.844122
vt 0.437042 0.968187
vt 0.312976 0.968187
vt 0.312976 0.844122
vt 0.437042 0.844122
vt 0.437042 0.968187
vt 0.312976 0.968187
vn 0.000000 0.000000 1.000000
vn 0.000000 0.000000 1.000000
vn 0.000000 0.000000 1.000000
vn 0.000000 0.000000 1.000000
vn 0.000000 1.000000 0.000000
vn 0.000000 1.000000 0.000000
vn 0.000000 1.000000 0.000000
vn 0.000000 1.000000 0.000000
vn 0.000000 0.000000 -1.000000
vn 0.000000 0.000000 -1.000000
vn 0.000000 0.000000 -1.000000
vn 0.000000 0.000000 -1.000000
vn 0.000000 -1.000000 0.000000
vn 0.000000 -1.000000 0.000000
vn 0.000000 -1.000000 0.000000
vn 0.000000 -1.000000 0.000000
vn 1.000000 0.000000 0.000000
vn 1.000000 0.000000 0.000000
vn 1.000000 0.000000 0.000000
vn 1.000000 0.000000 0.000000
vn -1.000000 0.000000 0.000000
vn -1.000000 0.000000 0.000000
vn -1.000000 0.000000 0.000000
vn -1.000000 0.000000 0.000000
vn 0.000000 0.000000 1.000000
vn 0.000000 0.000000 1.000000
vn 0.000000 0.000000 1.000000
vn 0.000000 0.000000 1.000000
vn 0.000000 0.000000 -1.000000
vn 0.000000 0.000000 -1.000000
vn 0.000000 0.000000 -1.000000
vn 0.000000 0.000000 -1.000000
vn 1.000000 0.000000 0.000000
vn 1.000000 0.000000 0.000000
vn 1.000000 0.000000 0.000000
vn 1.000000 0.000000 0.000000
vn -1.000000 0.000000 0.000000
vn -1.000000 0.000000 0.000000
vn -1.000000 0.000000 0.000000
vn -1.000000 0.000000 0.000000
vn 0.000000 0.000000 1.000000
vn 0.000000 0.000000 1.000000
vn 0.000000 0.000000 1.000000
vn 0.000000 0.000000 1.000000
vn 0.000000 1.000000 0.000000
vn 0.000000 1.000000 0.000000
vn 0.000000 1.000000 0.000000
vn 0.000000 1.000000 0.000000
vn 0.000000 0.000000 -1.000000
vn 0.000000 0.000000 -1.000000
vn 0.000000 0.000000 -1.000000
vn 0.000000 0.000000 -1.000000
vn 0.000000 -1.000000 0.000000
vn 0.000000 -1.000000 0.000000
vn 0.000000 -1.000000 0.000000
vn 0.000000 -1.000000 0.000000
vn 1.000000 0.000000 0.000000
vn 1.000000 0.000000 0.000000
vn 1.000000 0.000000 0.000000
vn 1.000000 0.000000 0.000000
vn -1.000000 0.000000 0.000000
vn -1.000000 0.000000 0.000000
vn -1.000000 0.000000 0.000000
vn -1.000000 0.000000 0.000000
vn 0.000000 0.204704 0.978824
vn 0.000000 0.204704 0.978824
vn 0.000000 0.204704 0.978824
vn 0.000000 0.204704 0.978824
vn 0.000000 -0.204704 -0.978824
vn 0.000000 -0.204704 -0.978824
vn 0.000000 -0.204704 -0.978824
vn 0.000000 -0.204704 -0.978824
vn 1.000000 -0.000000 0.000000
vn 1.000000 -0.000000 0.000000
vn 1.000000 -0.000000 0.000000
vn 1.000000 -0.000000 0.000000
vn -1.000000 -0.000000 0.000000
vn -1.000000 -0.000000 0.000000
vn -1.000000 -0.000000 0.000000
vn -1.000000 -0.000000 0.000000
vn 0.000000 0.134418 0.990925
vn 0.000000 0.134418 0.990925
vn 0.000000 0.134418 0.990925
vn 0.000000 0.134418 0.990925
vn 0.000000 0.990925 -0.134418
vn 0.000000 0.990925 -0.134418
vn 0.000000 0.990925 -0.134418
vn 0.000000 0.990925 -0.134418
vn 0.000000 -0.134418 -0.990925
vn 0.000000 -0.134418 -0.990925
vn 0.000000 -0.134418 -0.990925
vn 0.000000 -0.134418 -0.990925
vn 1.000000 -0.000000 0.000000
vn 1.000000 -0.000000 0.000000
vn 1.000000 -0.000000 0.000000
vn 1.000000 -0.000000 0.000000
vn -1.000000 -0.000000 0.000000
vn -1.000000 -0.000000 0.000000
vn -1.000000 -0.000000 0.000000
vn -1.000000 -0.000000 0.000000
vn 0.000000 -0.018273 0.999833
vn 0.000000 -0.018273 0.999833
vn 0.000000 -0.018273 0.999833
vn 0.000000 -0.018273 0.999833
vn 0.000000 0.999833 0.018273
vn 0.000000 0.999833 0.018273
vn 0.000000 0.999833 0.018273
vn 0.000000 0.999833 0.018273
vn 0.000000 0.018273 -0.999833
vn 0.000000 0.018273 -0.999833
vn 0.000000 0.018273 -0.999833
vn 0.000000 0.018273 -0.999833
vn 1.000000 0.000000 0.000000
vn 1.000000 0.000000 0.000000
vn 1.000000 0.000000 0.000000
vn 1.000000 0.000000 0.000000
vn -1.000000 -0.000000 0.000000
vn -1.000000 -0.000000 0.000000
vn -1.000000 -0.000000 0.000000
vn -1.000000 -0.000000 0.000000
vn 0.000000 0.055447 0.998462
vn 0.000000 0.055447 0.998462
vn 0.000000 0.055447 0.998462
vn 0.000000 0.055447 0.998462
vn 0.000000 0.998462 -0.055447
vn 0.000000 0.998462 -0.055447
vn 0.000000 0.998462 -0.055447
vn 0.000000 0.998462 -0.055447
vn 0.000000 -0.055447 -0.998462
vn 0.000000 -0.055447 -0.998462
vn 0.000000 -0.055447 -0.998462
vn 0.000000 -0.055447 -0.998462
vn 0.000000 -0.998462 0.055447
vn 0.000000 -0.998462 0.055447
vn 0.000000 -0.998462 0.055447
vn 0.000000 -0.998462 0.055447
vn 1.000000 0.000000 0.000000
vn 1.000000 0.000000 0.000000
vn 1.000000 0.000000 0.000000
vn 1.000000 0.000000 0.000000
vn -1.000000 -0.000000 0.000000
vn -1.000000 -0.000000 0.000000
vn -1.000000 -0.000000 0.000000
vn -1.000000 -0.000000 0.000000
vn 0.000000 0.174681 0.984625
vn 0.000000 0.174681 0.984625
vn 0.000000 0.174681 0.984625
vn 0.000000 0.174681 0.984625
vn 0.000000 0.965410 0.260737
vn 0.000000 0.965410 0.260737
vn 0.000000 0.965410 0.260737
vn 0.000000 0.965410 0.260737
vn 0.000000 -0.065770 -0.997835
vn 0.000000 -0.065770 -0.997835
vn 0.000000 -0.065770 -0.997835
vn 0.000000 -0.065770 -0.997835
vn 0.000000 -0.978824 0.204704
vn 0.000000 -0.978824 0.204704
vn 0.000000 -0.978824 0.204704
vn 0.000000 -0.978824 0.204704
vn 1.000000 0.000000 0.000000
vn 1.000000 0.000000 0.000000
vn 1.000000 0.000000 0.000000
vn 1.000000 0.000000 0.000000
vn -1.000000 -0.000000 0.000000
vn -1.000000 -0.000000 0.000000
vn -1.000000 -0.000000 0.000000
vn -1.000000 -0.000000 0.000000
vn 0.000000 0.000000 1.000000
vn 0.000000 0.000000 1.000000
vn 0.000000 0.000000 1.000000
vn 0.000000 0.000000 1.000000
vn 0.000000 1.000000 0.000000
vn 0.000000 1.000000 0.000000
vn 0.000000 1.000000 0.000000
vn 0.000000 1.000000 0.000000
vn 0.000000 0.000000 -1.000000
vn 0.000000 0.000000 -1.000000
vn 0.000000 0.000000 -1.000000
vn 0.000000 0.000000 -1.000000
vn 0.000000 -1.000000 0.000000
vn 0.000000 -1.000000 0.000000
vn 0.000000 -1.000000 0.000000
vn 0.000000 -1.000000 0.000000
vn 1.000000 0.000000 0.000000
vn 1.000000 0.000000 0.000000
vn 1.000000 0.000000 0.000000
vn 1.000000 0.000000 0.000000
vn -1.000000 0.000000 0.000000
vn -1.000000 0.000000 0.000000
vn -1.000000 0.000000 0.000000
vn -1.000000 0.000000 0.000000
vn 0.000000 0.000000 1.000000
vn 0.000000 0.000000 1.000000
vn 0.000000 0.000000 1.000000
vn 0.000000 0.000000 1.000000
vn 0.000000 1.000000 0.000000
vn 0.000000 1.000000 0.000000
vn 0.000000 1.000000 0.000000
vn 0.000000 1.000000 0.000000
vn 0.000000 0.000000 -1.000000
vn 0.000000 0.000000 -1.000000
vn 0.000000 0.000000 -1.000000
vn 0.000000 0.000000 -1.000000
vn 0.000000 -1.000000 0.000000
vn 0.000000 -1.000000 0.000000
vn 0.000000 -1.000000 0.000000
vn 0.000000 -1.000000 0.000000
vn -1.000000 0.000000 0.000000
vn -1.000000 0.000000 0.000000
vn -1.000000 0.000000 0.000000
vn -1.000000 0.000000 0.000000
vn 1.000000 0.000000 0.000000
vn 1.000000 0.000000 0.000000
vn 1.000000 0.000000 0.000000
vn 1.000000 0.000000 0.000000
s off
g pCube33
usemtl initialShadingGroup
f 1/182/1 2/2/2 4/185/3 3/187/4
f 3/3/5 4/186/6 6/6/7 5/184/8
f 5/5/9 6/183/10 8/8/11 7/181/12
f 7/7/13 8/179/14 2/10/15 1/9/16
f 2/180/17 8/11/18 6/12/19 4/4/20
f 7/13/21 1/1/22 3/188/23 5/14/24
f 9/174/25 10/16/26 12/176/27 11/177/28
f 13/18/29 14/175/30 16/19/31 15/173/32
f 10/172/33 16/20/34 14/21/35 12/17/36
f 15/22/37 9/15/38 11/178/39 13/23/40
f 17/165/41 18/25/42 20/168/43 19/170/44
f 19/27/45 20/169/46 22/28/47 21/167/48
f 21/29/49 22/166/50 24/30/51 23/164/52
f 23/31/53 24/162/54 18/32/55 17/33/56
f 18/163/57 24/34/58 22/35/59 20/26/60
f 23/36/61 17/24/62 19/171/63 21/37/64
f 25/157/65 26/39/66 28/159/67 27/160/68
f 29/41/69 30/158/70 32/42/71 31/156/72
f 26/155/73 32/43/74 30/44/75 28/40/76
f 31/45/77 25/38/78 27/161/79 29/46/80
f 33/148/81 34/48/82 36/151/83 35/153/84
f 35/50/85 36/152/86 38/51/87 37/150/88
f 37/52/89 38/149/90 40/53/91 39/147/92
f 34/146/93 40/54/94 38/55/95 36/49/96
f 39/56/97 33/47/98 35/154/99 37/57/100
f 41/139/101 42/59/102 44/142/103 43/144/104
f 43/61/105 44/143/106 46/62/107 45/141/108
f 45/63/109 46/140/110 48/64/111 47/138/112
f 42/137/113 48/65/114 46/66/115 44/60/116
f 47/67/117 41/58/118 43/145/119 45/68/120
f 49/130/121 50/70/122 52/133/123 51/135/124
f 51/72/125 52/134/126 54/73/127 53/132/128
f 53/74/129 54/131/130 56/75/131 55/129/132
f 55//133 56//134 50//135 49//136
f 50/128/137 56/76/138 54/77/139 52/71/140
f 55/78/141 49/69/142 51/136/143 53/79/144
f 57/121/145 58/81/146 60/124/147 59/126/148
f 59/83/149 60/125/150 62/84/151 61/123/152
f 61/85/153 62/122/154 64/86/155 63/120/156
f 63/87/157 64/118/158 58/88/159 57/89/160
f 58/119/161 64/90/162 62/91/163 60/82/164
f 63/92/165 57/80/166 59/127/167 61/93/168
f 65/111/169 66/95/170 68/114/171 67/116/172
f 67/97/173 68/115/174 70/98/175 69/113/176
f 69/99/177 70/112/178 72/100/179 71/110/180
f 71/101/181 72/108/182 66/102/183 65/103/184
f 66/109/185 72/104/186 70/105/187 68/96/188
f 71/106/189 65/94/190 67/117/191 69/107/192
f 73/189/193 76/192/194 75/191/195 74/190/196
f 76/193/197 78/196/198 77/195/199 75/194/200
f 78/197/201 80/200/202 79/199/203 77/198/204
f 80/201/205 73/204/206 74/203/207 79/202/208
f 74/205/209 75/208/210 77/207/211 79/206/212
f 80/209/213 78/212/214 76/211/215 73/210/216
