# This file uses centimeters as units for non-parametric coordinates.

mtllib Pony.mtl
g default
v -0.232830 0.000000 0.258982
v 0.232830 -0.000000 0.258982
v 0.232830 0.126315 0.267793
v -0.232830 0.126315 0.267793
v 0.232830 0.177705 -0.032768
v -0.232830 0.177705 -0.032768
v 0.232830 -0.000000 -0.023958
v -0.232830 0.000000 -0.023958
v -0.100550 0.433667 0.129012
v 0.100550 0.433667 0.129012
v -0.100550 0.634418 0.140834
v 0.100550 0.634418 0.140834
v -0.100550 0.646240 -0.059917
v 0.100550 0.646240 -0.059917
v -0.100550 0.445489 -0.071739
v 0.100550 0.445489 -0.071739
v -0.084547 0.621555 0.123496
v 0.084547 0.621555 0.123496
v -0.084547 0.790649 0.123496
v 0.084547 0.790649 0.123496
v -0.084547 0.790649 -0.045598
v 0.084547 0.790649 -0.045598
v -0.084547 0.621555 -0.045598
v 0.084547 0.621555 -0.045598
v -0.091396 0.767987 0.172623
v 0.091396 0.767987 0.172623
v -0.091396 0.875540 -0.013664
v 0.091396 0.875540 -0.013664
v -0.091396 0.797325 -0.058821
v 0.091396 0.797325 -0.058821
v -0.091396 0.689772 0.127466
v 0.091396 0.689772 0.127466
v -0.128514 0.208298 0.129270
v 0.128514 0.208298 0.129270
v -0.128514 0.442490 0.161502
v 0.128514 0.442490 0.161502
v -0.128514 0.516434 -0.093209
v 0.128514 0.516434 -0.093209
v -0.128514 0.240664 -0.125711
v 0.128514 0.240664 -0.125711
v -0.159080 0.000000 0.159080
v 0.159080 0.000000 0.159080
v -0.159080 0.202267 0.168987
v 0.159080 0.202267 0.168987
v -0.159080 0.284612 -0.168987
v 0.159080 0.284612 -0.168987
v -0.159080 0.000000 -0.159080
v 0.159080 0.000000 -0.159080
vt 0.218929 0.468831
vt 0.218929 0.593168
vt 0.155719 0.593168
vt 0.155719 0.468831
vt 0.155805 0.468831
vt 0.155805 0.593168
vt 0.031468 0.593168
vt 0.031468 0.468831
vt 0.094678 0.593934
vt 0.094678 0.718271
vt 0.031938 0.718270
vt 0.031938 0.593934
vt 0.155603 0.281588
vt 0.155603 0.467978
vt 0.031266 0.467978
vt 0.031266 0.281588
vt 0.156142 0.593603
vt 0.156142 0.717939
vt 0.095307 0.717939
vt 0.095307 0.593603
vt 0.217359 0.343729
vt 0.217359 0.468065
vt 0.156523 0.468065
vt 0.156523 0.343729
vt 0.563179 0.687512
vt 0.687516 0.687512
vt 0.687516 0.811848
vt 0.563179 0.811848
vt 0.687868 0.687336
vt 0.812204 0.687336
vt 0.812204 0.811673
vt 0.687868 0.811673
vt 0.437793 0.687438
vt 0.562129 0.687438
vt 0.562129 0.811775
vt 0.437793 0.811775
vt 0.312597 0.687630
vt 0.436934 0.687630
vt 0.436934 0.811967
vt 0.312597 0.811967
vt 0.312597 0.687426
vt 0.436934 0.687426
vt 0.436934 0.811763
vt 0.312597 0.811763
vt 0.563179 0.812368
vt 0.687516 0.812368
vt 0.687516 0.936705
vt 0.563179 0.936705
vt 0.437793 0.812295
vt 0.562129 0.812295
vt 0.562129 0.936631
vt 0.437793 0.936631
vt 0.312597 0.812487
vt 0.436934 0.812487
vt 0.436934 0.936823
vt 0.312597 0.936823
vt 0.312597 0.812547
vt 0.436934 0.812547
vt 0.436934 0.936884
vt 0.312597 0.936884
vt 0.000172 0.874926
vt 0.125147 0.874926
vt 0.125147 0.999900
vt 0.000172 0.999900
vt 0.000121 0.812460
vt 0.125148 0.812445
vt 0.125156 0.874682
vt 0.000129 0.874698
vt 0.000172 0.874926
vt 0.125147 0.874926
vt 0.125147 0.999900
vt 0.000172 0.999900
vt 0.000129 0.812445
vt 0.125156 0.812460
vt 0.125148 0.874698
vt 0.000121 0.874682
vt 0.125399 0.812527
vt 0.125404 0.874600
vt -0.000122 0.874616
vt -0.000127 0.812542
vt -0.000127 0.874600
vt -0.000122 0.812527
vt 0.125404 0.812542
vt 0.125399 0.874615
vt 0.563179 0.562801
vt 0.687516 0.562801
vt 0.687516 0.687138
vt 0.563179 0.687138
vt 0.687868 0.562626
vt 0.812204 0.562626
vt 0.812204 0.686963
vt 0.687868 0.686963
vt 0.437793 0.562728
vt 0.562129 0.562728
vt 0.562129 0.687065
vt 0.437793 0.687065
vt 0.312597 0.562920
vt 0.436934 0.562920
vt 0.436934 0.687257
vt 0.312597 0.687257
vt 0.312783 0.562956
vt 0.437120 0.562956
vt 0.437120 0.687293
vt 0.312783 0.687293
vt 0.563179 0.437760
vt 0.687516 0.437760
vt 0.687516 0.562097
vt 0.563179 0.562097
vt 0.687868 0.437585
vt 0.812204 0.437585
vt 0.812204 0.561922
vt 0.687868 0.561922
vt 0.437793 0.437687
vt 0.562129 0.437687
vt 0.562129 0.562024
vt 0.437793 0.562024
vt 0.313092 0.313549
vt 0.437429 0.313549
vt 0.437429 0.437886
vt 0.313092 0.437886
vt 0.312597 0.437879
vt 0.436934 0.437879
vt 0.436934 0.562216
vt 0.312597 0.562216
vt 0.312625 0.437820
vt 0.436961 0.437820
vt 0.436961 0.562157
vt 0.312625 0.562157
vn 0.000000 -0.069582 0.997576
vn 0.000000 -0.069582 0.997576
vn 0.000000 -0.069582 0.997576
vn 0.000000 -0.069582 0.997576
vn 0.000000 0.985696 0.168534
vn 0.000000 0.985696 0.168534
vn 0.000000 0.985696 0.168534
vn 0.000000 0.985696 0.168534
vn 0.000000 -0.049519 -0.998773
vn 0.000000 -0.049519 -0.998773
vn 0.000000 -0.049519 -0.998773
vn 0.000000 -0.049519 -0.998773
vn -0.000000 -1.000000 0.000000
vn -0.000000 -1.000000 0.000000
vn -0.000000 -1.000000 0.000000
vn -0.000000 -1.000000 0.000000
vn 1.000000 0.000000 0.000000
vn 1.000000 0.000000 0.000000
vn 1.000000 0.000000 0.000000
vn 1.000000 0.000000 0.000000
vn -1.000000 -0.000000 0.000000
vn -1.000000 -0.000000 0.000000
vn -1.000000 -0.000000 0.000000
vn -1.000000 -0.000000 0.000000
vn 0.000000 -0.058787 0.998271
vn 0.000000 -0.058787 0.998271
vn 0.000000 -0.058787 0.998271
vn 0.000000 -0.058787 0.998271
vn 0.000000 0.998271 0.058787
vn 0.000000 0.998271 0.058787
vn 0.000000 0.998271 0.058787
vn 0.000000 0.998271 0.058787
vn 0.000000 0.058787 -0.998271
vn 0.000000 0.058787 -0.998271
vn 0.000000 0.058787 -0.998271
vn 0.000000 0.058787 -0.998271
vn 1.000000 0.000000 0.000000
vn 1.000000 0.000000 0.000000
vn 1.000000 0.000000 0.000000
vn 1.000000 0.000000 0.000000
vn -1.000000 -0.000000 0.000000
vn -1.000000 -0.000000 0.000000
vn -1.000000 -0.000000 0.000000
vn -1.000000 -0.000000 0.000000
vn 0.000000 0.000000 1.000000
vn 0.000000 0.000000 1.000000
vn 0.000000 0.000000 1.000000
vn 0.000000 0.000000 1.000000
vn 0.000000 0.000000 -1.000000
vn 0.000000 0.000000 -1.000000
vn 0.000000 0.000000 -1.000000
vn 0.000000 0.000000 -1.000000
vn 1.000000 0.000000 0.000000
vn 1.000000 0.000000 0.000000
vn 1.000000 0.000000 0.000000
vn 1.000000 0.000000 0.000000
vn -1.000000 0.000000 0.000000
vn -1.000000 0.000000 0.000000
vn -1.000000 0.000000 0.000000
vn -1.000000 0.000000 0.000000
vn 0.000000 0.866025 0.500000
vn 0.000000 0.866025 0.500000
vn 0.000000 0.866025 0.500000
vn 0.000000 0.866025 0.500000
vn 0.000000 0.500000 -0.866025
vn 0.000000 0.500000 -0.866025
vn 0.000000 0.500000 -0.866025
vn 0.000000 0.500000 -0.866025
vn 0.000000 -0.866025 -0.500000
vn 0.000000 -0.866025 -0.500000
vn 0.000000 -0.866025 -0.500000
vn 0.000000 -0.866025 -0.500000
vn 0.000000 -0.500000 0.866025
vn 0.000000 -0.500000 0.866025
vn 0.000000 -0.500000 0.866025
vn 0.000000 -0.500000 0.866025
vn 1.000000 0.000000 0.000000
vn 1.000000 0.000000 0.000000
vn 1.000000 0.000000 0.000000
vn 1.000000 0.000000 0.000000
vn -1.000000 0.000000 0.000000
vn -1.000000 0.000000 0.000000
vn -1.000000 0.000000 0.000000
vn -1.000000 0.000000 0.000000
vn 0.000000 -0.136342 0.990662
vn 0.000000 -0.136342 0.990662
vn 0.000000 -0.136342 0.990662
vn 0.000000 -0.136342 0.990662
vn 0.000000 0.960351 0.278793
vn 0.000000 0.960351 0.278793
vn 0.000000 0.960351 0.278793
vn 0.000000 0.960351 0.278793
vn 0.000000 0.117049 -0.993126
vn 0.000000 0.117049 -0.993126
vn 0.000000 0.117049 -0.993126
vn 0.000000 0.117049 -0.993126
vn 1.000000 -0.000000 0.000000
vn 1.000000 -0.000000 0.000000
vn 1.000000 -0.000000 0.000000
vn 1.000000 -0.000000 0.000000
vn -1.000000 0.000000 0.000000
vn -1.000000 0.000000 0.000000
vn -1.000000 0.000000 0.000000
vn -1.000000 0.000000 0.000000
vn 0.000000 -0.048923 0.998803
vn 0.000000 -0.048923 0.998803
vn 0.000000 -0.048923 0.998803
vn 0.000000 -0.048923 0.998803
vn 0.000000 0.971578 0.236720
vn 0.000000 0.971578 0.236720
vn 0.000000 0.971578 0.236720
vn 0.000000 0.971578 0.236720
vn 0.000000 -0.034789 -0.999395
vn 0.000000 -0.034789 -0.999395
vn 0.000000 -0.034789 -0.999395
vn 0.000000 -0.034789 -0.999395
vn 0.000000 -1.000000 0.000000
vn 0.000000 -1.000000 0.000000
vn 0.000000 -1.000000 0.000000
vn 0.000000 -1.000000 0.000000
vn 1.000000 -0.000000 0.000000
vn 1.000000 -0.000000 0.000000
vn 1.000000 -0.000000 0.000000
vn 1.000000 -0.000000 0.000000
vn -1.000000 -0.000000 0.000000
vn -1.000000 -0.000000 0.000000
vn -1.000000 -0.000000 0.000000
vn -1.000000 -0.000000 0.000000
s off
g polySurface16
usemtl initialShadingGroup
f 1/1/1 2/2/2 3/3/3 4/4/4
f 4/5/5 3/6/6 5/7/7 6/8/8
f 6/9/9 5/10/10 7/11/11 8/12/12
f 8/13/13 7/14/14 2/15/15 1/16/16
f 2/17/17 7/18/18 5/19/19 3/20/20
f 8/21/21 1/22/22 4/23/23 6/24/24
f 9/25/25 10/26/26 12/27/27 11/28/28
f 11/29/29 12/30/30 14/31/31 13/32/32
f 13/33/33 14/34/34 16/35/35 15/36/36
f 10/37/37 16/38/38 14/39/39 12/40/40
f 15/41/41 9/42/42 11/43/43 13/44/44
f 17/45/45 18/46/46 20/47/47 19/48/48
f 21/49/49 22/50/50 24/51/51 23/52/52
f 18/53/53 24/54/54 22/55/55 20/56/56
f 23/57/57 17/58/58 19/59/59 21/60/60
f 25/61/61 26/62/62 28/63/63 27/64/64
f 27/65/65 28/66/66 30/67/67 29/68/68
f 29/69/69 30/70/70 32/71/71 31/72/72
f 31/73/73 32/74/74 26/75/75 25/76/76
f 26/77/77 32/78/78 30/79/79 28/80/80
f 31/81/81 25/82/82 27/83/83 29/84/84
f 33/85/85 34/86/86 36/87/87 35/88/88
f 35/89/89 36/90/90 38/91/91 37/92/92
f 37/93/93 38/94/94 40/95/95 39/96/96
f 34/97/97 40/98/98 38/99/99 36/100/100
f 39/101/101 33/102/102 35/103/103 37/104/104
f 41/105/105 42/106/106 44/107/107 43/108/108
f 43/109/109 44/110/110 46/111/111 45/112/112
f 45/113/113 46/114/114 48/115/115 47/116/116
f 47/117/117 48/118/118 42/119/119 41/120/120
f 42/121/121 48/122/122 46/123/123 44/124/124
f 47/125/125 41/126/126 43/127/127 45/128/128
