# This file uses centimeters as units for non-parametric coordinates.

mtllib LittleDragon.mtl
g default
v -0.008186 0.945056 -0.036561
v 0.008186 0.945056 -0.036561
v -0.008186 0.941193 -0.072953
v 0.008186 0.941193 -0.072953
v -0.008186 0.893882 -0.067147
v 0.008186 0.893882 -0.067147
v -0.008186 0.907257 -0.027942
v 0.008186 0.907257 -0.027942
v -0.009326 0.860430 -0.020538
v 0.009326 0.860430 -0.020538
v -0.009326 0.862354 -0.062188
v 0.009326 0.862354 -0.062188
v -0.009326 0.808071 -0.063806
v 0.009326 0.808071 -0.063806
v -0.009326 0.816375 -0.017347
v 0.009326 0.816375 -0.017347
v -0.027008 0.230933 -0.126268
v 0.027008 0.230933 -0.126268
v -0.027008 0.265463 -0.241972
v 0.027008 0.265463 -0.241972
v -0.027008 0.114046 -0.284475
v 0.027008 0.114046 -0.284475
v -0.027008 0.104898 -0.148107
v 0.027008 0.104898 -0.148107
v -0.060892 0.786323 0.095727
v 0.060892 0.786323 0.095727
v -0.060892 0.906290 0.074770
v 0.060892 0.906290 0.074770
v -0.060892 0.885334 -0.045197
v 0.060892 0.885334 -0.045197
v -0.060892 0.765367 -0.024241
v 0.060892 0.765367 -0.024241
v -0.043957 0.890142 0.050309
v 0.043957 0.890142 0.050309
v -0.043957 0.976745 0.035181
v 0.043957 0.976745 0.035181
v -0.043957 0.961617 -0.051423
v 0.043957 0.961617 -0.051423
v -0.043957 0.875014 -0.036294
v 0.043957 0.875014 -0.036294
v -0.035535 0.965646 0.026400
v 0.035535 0.965646 0.026400
v -0.035535 1.032824 0.003205
v 0.035535 1.032824 0.003205
v -0.035535 1.009630 -0.063973
v 0.035535 1.009630 -0.063973
v -0.035535 0.942452 -0.040778
v 0.035535 0.942452 -0.040778
v -0.084547 0.621555 0.123496
v 0.084547 0.621555 0.123496
v -0.084547 0.790649 0.123496
v 0.084547 0.790649 0.123496
v -0.084547 0.790649 -0.045598
v 0.084547 0.790649 -0.045598
v -0.084547 0.621555 -0.045598
v 0.084547 0.621555 -0.045598
v -0.159080 0.000000 0.159080
v 0.159080 0.000000 0.159080
v -0.159080 0.202267 0.168987
v 0.159080 0.202267 0.168987
v -0.159080 0.284612 -0.168987
v 0.159080 0.284612 -0.168987
v -0.159080 0.000000 -0.159080
v 0.159080 0.000000 -0.159080
v -0.232830 0.000000 0.258982
v 0.232830 0.000000 0.258982
v -0.232830 0.126315 0.267793
v 0.232830 0.126315 0.267793
v -0.232830 0.177705 -0.032768
v 0.232830 0.177705 -0.032768
v -0.232830 0.000000 -0.023958
v 0.232830 0.000000 -0.023958
v -0.100550 0.433667 0.129012
v 0.100550 0.433667 0.129012
v -0.100550 0.634418 0.140834
v 0.100550 0.634418 0.140834
v -0.100550 0.646240 -0.059917
v 0.100550 0.646240 -0.059917
v -0.100550 0.445489 -0.071739
v 0.100550 0.445489 -0.071739
v -0.128514 0.208298 0.129270
v 0.128514 0.208298 0.129270
v -0.128514 0.442490 0.161502
v 0.128514 0.442490 0.161502
v -0.128514 0.516434 -0.093209
v 0.128514 0.516434 -0.093209
v -0.128514 0.240664 -0.125711
v 0.128514 0.240664 -0.125711
v -0.016276 0.617383 -0.035869
v 0.016276 0.617383 -0.035869
v -0.016276 0.638192 -0.105596
v 0.016276 0.638192 -0.105596
v -0.016276 0.546942 -0.131210
v 0.016276 0.546942 -0.131210
v -0.016276 0.541429 -0.049030
v 0.016276 0.541429 -0.049030
v -0.014313 0.749794 -0.018118
v 0.014313 0.749794 -0.018118
v -0.014313 0.761661 -0.080997
v 0.014313 0.761661 -0.080997
v -0.014313 0.679520 -0.095111
v 0.014313 0.679520 -0.095111
v -0.014313 0.682164 -0.022729
v 0.014313 0.682164 -0.022729
v -0.023398 0.451676 -0.068210
v 0.023398 0.451676 -0.068210
v -0.023398 0.481590 -0.168447
v 0.023398 0.481590 -0.168447
v -0.023398 0.350413 -0.205269
v 0.023398 0.350413 -0.205269
v -0.023398 0.342488 -0.087130
v 0.023398 0.342488 -0.087130
vt 0.218723 0.031986
vt 0.281007 0.031986
vt 0.281007 0.156323
vt 0.218723 0.156323
vt 0.281183 0.031811
vt 0.343467 0.031811
vt 0.343467 0.156148
vt 0.281183 0.156148
vt 0.155912 0.031913
vt 0.218197 0.031913
vt 0.218197 0.156249
vt 0.155912 0.156249
vt 0.031465 0.032105
vt 0.155801 0.032105
vt 0.155801 0.156441
vt 0.031465 0.156441
vt 0.031651 0.032141
vt 0.155988 0.032141
vt 0.155988 0.156478
vt 0.031651 0.156478
vt 0.218723 0.031986
vt 0.281007 0.031986
vt 0.281007 0.156323
vt 0.218723 0.156323
vt 0.281183 0.031811
vt 0.343467 0.031811
vt 0.343467 0.156148
vt 0.281183 0.156148
vt 0.155912 0.031913
vt 0.218197 0.031913
vt 0.218197 0.156249
vt 0.155912 0.156249
vt 0.031465 0.032105
vt 0.155801 0.032105
vt 0.155801 0.156441
vt 0.031465 0.156441
vt 0.031651 0.032141
vt 0.155988 0.032141
vt 0.155988 0.156478
vt 0.031651 0.156478
vt 0.218723 0.031986
vt 0.281007 0.031986
vt 0.281007 0.156323
vt 0.218723 0.156323
vt 0.281183 0.031811
vt 0.343467 0.031811
vt 0.343467 0.156148
vt 0.281183 0.156148
vt 0.155912 0.031913
vt 0.218197 0.031913
vt 0.218197 0.156249
vt 0.155912 0.156249
vt 0.031465 0.032105
vt 0.155801 0.032105
vt 0.155801 0.156441
vt 0.031465 0.156441
vt 0.031651 0.032141
vt 0.155988 0.032141
vt 0.155988 0.156478
vt 0.031651 0.156478
vt 0.656652 0.719037
vt 0.780988 0.719037
vt 0.780988 0.843373
vt 0.656652 0.843373
vt 0.531265 0.718963
vt 0.655601 0.718963
vt 0.655601 0.843300
vt 0.531265 0.843300
vt 0.406069 0.719155
vt 0.530406 0.719155
vt 0.530406 0.843492
vt 0.406069 0.843492
vt 0.406069 0.719216
vt 0.530406 0.719216
vt 0.530406 0.843553
vt 0.406069 0.843553
vt 0.906283 0.719506
vt 0.906328 0.843843
vt 0.781991 0.843888
vt 0.781946 0.719551
vt 0.656652 0.844861
vt 0.780988 0.844861
vt 0.780988 0.969198
vt 0.656652 0.969198
vt 0.531265 0.844788
vt 0.655601 0.844788
vt 0.655601 0.969124
vt 0.531265 0.969124
vt 0.406069 0.844980
vt 0.530406 0.844980
vt 0.530406 0.969316
vt 0.406069 0.969316
vt 0.406069 0.845040
vt 0.530406 0.845040
vt 0.530406 0.969377
vt 0.406069 0.969377
vt 0.906283 0.844998
vt 0.906328 0.969334
vt 0.781991 0.969379
vt 0.781946 0.845042
vt 0.656652 0.594319
vt 0.780988 0.594319
vt 0.780988 0.718656
vt 0.656652 0.718656
vt 0.531265 0.594245
vt 0.655601 0.594245
vt 0.655601 0.718582
vt 0.531265 0.718582
vt 0.406069 0.594438
vt 0.530406 0.594438
vt 0.530406 0.718774
vt 0.406069 0.718774
vt 0.406069 0.594498
vt 0.530406 0.594498
vt 0.530406 0.718835
vt 0.406069 0.718835
vt 0.906283 0.594789
vt 0.906328 0.719125
vt 0.781991 0.719170
vt 0.781946 0.594833
vt 0.656652 0.594319
vt 0.780988 0.594319
vt 0.780988 0.718656
vt 0.656652 0.718656
vt 0.531265 0.594245
vt 0.655601 0.594245
vt 0.655601 0.718582
vt 0.531265 0.718582
vt 0.406069 0.594438
vt 0.530406 0.594438
vt 0.530406 0.718774
vt 0.406069 0.718774
vt 0.406069 0.594498
vt 0.530406 0.594498
vt 0.530406 0.718835
vt 0.406069 0.718835
vt 0.906283 0.594789
vt 0.906328 0.719125
vt 0.781991 0.719170
vt 0.781946 0.594833
vt 0.656652 0.219711
vt 0.780988 0.219711
vt 0.780988 0.344048
vt 0.656652 0.344048
vt 0.781340 0.219536
vt 0.905677 0.219536
vt 0.905677 0.343873
vt 0.781340 0.343873
vt 0.531265 0.219638
vt 0.655601 0.219638
vt 0.655601 0.343974
vt 0.531265 0.343974
vt 0.406565 0.095500
vt 0.530901 0.095500
vt 0.530901 0.219837
vt 0.406565 0.219837
vt 0.406069 0.219830
vt 0.530406 0.219830
vt 0.530406 0.344167
vt 0.406069 0.344167
vt 0.406097 0.219771
vt 0.530434 0.219771
vt 0.530434 0.344108
vt 0.406097 0.344108
vt 0.218929 0.468831
vt 0.218929 0.593168
vt 0.155719 0.593168
vt 0.155719 0.468831
vt 0.155805 0.468831
vt 0.155805 0.593168
vt 0.031468 0.593168
vt 0.031468 0.468831
vt 0.094678 0.593934
vt 0.094678 0.718271
vt 0.031938 0.718270
vt 0.031938 0.593934
vt 0.155603 0.281588
vt 0.155603 0.467978
vt 0.031266 0.467978
vt 0.031266 0.281588
vt 0.156142 0.593603
vt 0.156142 0.717939
vt 0.095307 0.717939
vt 0.095307 0.593603
vt 0.217359 0.343729
vt 0.217359 0.468065
vt 0.156523 0.468065
vt 0.156523 0.343729
vt 0.656652 0.469462
vt 0.780988 0.469462
vt 0.780988 0.593799
vt 0.656652 0.593799
vt 0.781340 0.469287
vt 0.905677 0.469287
vt 0.905677 0.593624
vt 0.781340 0.593624
vt 0.531265 0.469389
vt 0.655601 0.469389
vt 0.655601 0.593726
vt 0.531265 0.593726
vt 0.406069 0.469581
vt 0.530406 0.469581
vt 0.530406 0.593918
vt 0.406069 0.593918
vt 0.406069 0.469377
vt 0.530406 0.469377
vt 0.530406 0.593714
vt 0.406069 0.593714
vt 0.656652 0.344752
vt 0.780988 0.344752
vt 0.780988 0.469089
vt 0.656652 0.469089
vt 0.781340 0.344577
vt 0.905677 0.344577
vt 0.905677 0.468914
vt 0.781340 0.468914
vt 0.531265 0.344679
vt 0.655601 0.344679
vt 0.655601 0.469015
vt 0.531265 0.469015
vt 0.406069 0.344871
vt 0.530406 0.344871
vt 0.530406 0.469207
vt 0.406069 0.469207
vt 0.406255 0.344907
vt 0.530592 0.344907
vt 0.530592 0.469244
vt 0.406255 0.469244
vt 0.218723 0.031986
vt 0.281007 0.031986
vt 0.281007 0.156323
vt 0.218723 0.156323
vt 0.281183 0.031811
vt 0.343467 0.031811
vt 0.343467 0.156148
vt 0.281183 0.156148
vt 0.155912 0.031913
vt 0.218197 0.031913
vt 0.218197 0.156249
vt 0.155912 0.156249
vt 0.031465 0.032105
vt 0.155801 0.032105
vt 0.155801 0.156441
vt 0.031465 0.156441
vt 0.031651 0.032141
vt 0.155988 0.032141
vt 0.155988 0.156478
vt 0.031651 0.156478
vt 0.218723 0.031986
vt 0.281007 0.031986
vt 0.281007 0.156323
vt 0.218723 0.156323
vt 0.281183 0.031811
vt 0.343467 0.031811
vt 0.343467 0.156148
vt 0.281183 0.156148
vt 0.155912 0.031913
vt 0.218197 0.031913
vt 0.218197 0.156249
vt 0.155912 0.156249
vt 0.031465 0.032105
vt 0.155801 0.032105
vt 0.155801 0.156441
vt 0.031465 0.156441
vt 0.031651 0.032141
vt 0.155988 0.032141
vt 0.155988 0.156478
vt 0.031651 0.156478
vt 0.218723 0.031986
vt 0.281007 0.031986
vt 0.281007 0.156323
vt 0.218723 0.156323
vt 0.281183 0.031811
vt 0.343467 0.031811
vt 0.343467 0.156148
vt 0.281183 0.156148
vt 0.155912 0.031913
vt 0.218197 0.031913
vt 0.218197 0.156249
vt 0.155912 0.156249
vt 0.031465 0.032105
vt 0.155801 0.032105
vt 0.155801 0.156441
vt 0.031465 0.156441
vt 0.031651 0.032141
vt 0.155988 0.032141
vt 0.155988 0.156478
vt 0.031651 0.156478
vn 0.000000 0.994413 -0.105558
vn 0.000000 0.994413 -0.105558
vn 0.000000 0.994413 -0.105558
vn 0.000000 0.994413 -0.105558
vn 0.000000 -0.121809 -0.992554
vn 0.000000 -0.121809 -0.992554
vn 0.000000 -0.121809 -0.992554
vn 0.000000 -0.121809 -0.992554
vn 0.000000 -0.946435 0.322896
vn 0.000000 -0.946435 0.322896
vn 0.000000 -0.946435 0.322896
vn 0.000000 -0.946435 0.322896
vn 1.000000 0.000000 0.000000
vn 1.000000 0.000000 0.000000
vn 1.000000 0.000000 0.000000
vn 1.000000 0.000000 0.000000
vn -1.000000 0.000000 0.000000
vn -1.000000 0.000000 0.000000
vn -1.000000 0.000000 0.000000
vn -1.000000 0.000000 0.000000
vn 0.000000 0.998935 0.046142
vn 0.000000 0.998935 0.046142
vn 0.000000 0.998935 0.046142
vn 0.000000 0.998935 0.046142
vn 0.000000 0.029796 -0.999556
vn 0.000000 0.029796 -0.999556
vn 0.000000 0.029796 -0.999556
vn 0.000000 0.029796 -0.999556
vn 0.000000 -0.984398 0.175954
vn 0.000000 -0.984398 0.175954
vn 0.000000 -0.984398 0.175954
vn 0.000000 -0.984398 0.175954
vn 1.000000 0.000000 0.000000
vn 1.000000 0.000000 0.000000
vn 1.000000 0.000000 0.000000
vn 1.000000 0.000000 0.000000
vn -1.000000 0.000000 0.000000
vn -1.000000 0.000000 0.000000
vn -1.000000 0.000000 0.000000
vn -1.000000 0.000000 0.000000
vn 0.000000 0.958239 0.285969
vn 0.000000 0.958239 0.285969
vn 0.000000 0.958239 0.285969
vn 0.000000 0.958239 0.285969
vn 0.000000 0.270256 -0.962789
vn 0.000000 0.270256 -0.962789
vn 0.000000 0.270256 -0.962789
vn 0.000000 0.270256 -0.962789
vn 0.000000 -0.997757 -0.066935
vn 0.000000 -0.997757 -0.066935
vn 0.000000 -0.997757 -0.066935
vn 0.000000 -0.997757 -0.066935
vn 1.000000 0.000000 0.000000
vn 1.000000 0.000000 0.000000
vn 1.000000 0.000000 0.000000
vn 1.000000 0.000000 0.000000
vn -1.000000 0.000000 0.000000
vn -1.000000 0.000000 0.000000
vn -1.000000 0.000000 0.000000
vn -1.000000 0.000000 0.000000
vn 0.000000 0.172080 0.985083
vn 0.000000 0.172080 0.985083
vn 0.000000 0.172080 0.985083
vn 0.000000 0.172080 0.985083
vn 0.000000 -0.172080 -0.985083
vn 0.000000 -0.172080 -0.985083
vn 0.000000 -0.172080 -0.985083
vn 0.000000 -0.172080 -0.985083
vn 1.000000 -0.000000 0.000000
vn 1.000000 -0.000000 0.000000
vn 1.000000 -0.000000 0.000000
vn 1.000000 -0.000000 0.000000
vn -1.000000 -0.000000 0.000000
vn -1.000000 -0.000000 0.000000
vn -1.000000 -0.000000 0.000000
vn -1.000000 -0.000000 0.000000
vn 0.000000 0.985083 -0.172079
vn 0.000000 0.985083 -0.172079
vn 0.000000 0.985083 -0.172079
vn 0.000000 0.985083 -0.172079
vn 0.000000 0.172080 0.985083
vn 0.000000 0.172080 0.985083
vn 0.000000 0.172080 0.985083
vn 0.000000 0.172080 0.985083
vn 0.000000 -0.172080 -0.985083
vn 0.000000 -0.172080 -0.985083
vn 0.000000 -0.172080 -0.985083
vn 0.000000 -0.172080 -0.985083
vn 1.000000 0.000000 0.000000
vn 1.000000 0.000000 0.000000
vn 1.000000 0.000000 0.000000
vn 1.000000 0.000000 0.000000
vn -1.000000 0.000000 0.000000
vn -1.000000 0.000000 0.000000
vn -1.000000 0.000000 0.000000
vn -1.000000 0.000000 0.000000
vn 0.000000 0.985083 -0.172079
vn 0.000000 0.985083 -0.172079
vn 0.000000 0.985083 -0.172079
vn 0.000000 0.985083 -0.172079
vn 0.000000 0.326364 0.945244
vn 0.000000 0.326364 0.945244
vn 0.000000 0.326364 0.945244
vn 0.000000 0.326364 0.945244
vn 0.000000 -0.326364 -0.945244
vn 0.000000 -0.326364 -0.945244
vn 0.000000 -0.326364 -0.945244
vn 0.000000 -0.326364 -0.945244
vn 1.000000 0.000000 0.000000
vn 1.000000 0.000000 0.000000
vn 1.000000 0.000000 0.000000
vn 1.000000 0.000000 0.000000
vn -1.000000 -0.000000 0.000000
vn -1.000000 -0.000000 0.000000
vn -1.000000 -0.000000 0.000000
vn -1.000000 -0.000000 0.000000
vn 0.000000 0.945244 -0.326364
vn 0.000000 0.945244 -0.326364
vn 0.000000 0.945244 -0.326364
vn 0.000000 0.945244 -0.326364
vn 0.000000 0.000000 1.000000
vn 0.000000 0.000000 1.000000
vn 0.000000 0.000000 1.000000
vn 0.000000 0.000000 1.000000
vn 0.000000 0.000000 -1.000000
vn 0.000000 0.000000 -1.000000
vn 0.000000 0.000000 -1.000000
vn 0.000000 0.000000 -1.000000
vn 1.000000 0.000000 0.000000
vn 1.000000 0.000000 0.000000
vn 1.000000 0.000000 0.000000
vn 1.000000 0.000000 0.000000
vn -1.000000 0.000000 0.000000
vn -1.000000 0.000000 0.000000
vn -1.000000 0.000000 0.000000
vn -1.000000 0.000000 0.000000
vn 0.000000 1.000000 0.000000
vn 0.000000 1.000000 0.000000
vn 0.000000 1.000000 0.000000
vn 0.000000 1.000000 0.000000
vn 0.000000 -0.048923 0.998803
vn 0.000000 -0.048923 0.998803
vn 0.000000 -0.048923 0.998803
vn 0.000000 -0.048923 0.998803
vn 0.000000 0.971578 0.236720
vn 0.000000 0.971578 0.236720
vn 0.000000 0.971578 0.236720
vn 0.000000 0.971578 0.236720
vn 0.000000 -0.034789 -0.999395
vn 0.000000 -0.034789 -0.999395
vn 0.000000 -0.034789 -0.999395
vn 0.000000 -0.034789 -0.999395
vn 0.000000 -1.000000 0.000000
vn 0.000000 -1.000000 0.000000
vn 0.000000 -1.000000 0.000000
vn 0.000000 -1.000000 0.000000
vn 1.000000 -0.000000 0.000000
vn 1.000000 -0.000000 0.000000
vn 1.000000 -0.000000 0.000000
vn 1.000000 -0.000000 0.000000
vn -1.000000 -0.000000 0.000000
vn -1.000000 -0.000000 0.000000
vn -1.000000 -0.000000 0.000000
vn -1.000000 -0.000000 0.000000
vn 0.000000 -0.069582 0.997576
vn 0.000000 -0.069582 0.997576
vn 0.000000 -0.069582 0.997576
vn 0.000000 -0.069582 0.997576
vn 0.000000 0.985696 0.168534
vn 0.000000 0.985696 0.168534
vn 0.000000 0.985696 0.168534
vn 0.000000 0.985696 0.168534
vn 0.000000 -0.049519 -0.998773
vn 0.000000 -0.049519 -0.998773
vn 0.000000 -0.049519 -0.998773
vn 0.000000 -0.049519 -0.998773
vn 0.000000 -1.000000 0.000000
vn 0.000000 -1.000000 0.000000
vn 0.000000 -1.000000 0.000000
vn 0.000000 -1.000000 0.000000
vn 1.000000 0.000000 0.000000
vn 1.000000 0.000000 0.000000
vn 1.000000 0.000000 0.000000
vn 1.000000 0.000000 0.000000
vn -1.000000 -0.000000 0.000000
vn -1.000000 -0.000000 0.000000
vn -1.000000 -0.000000 0.000000
vn -1.000000 -0.000000 0.000000
vn 0.000000 -0.058787 0.998271
vn 0.000000 -0.058787 0.998271
vn 0.000000 -0.058787 0.998271
vn 0.000000 -0.058787 0.998271
vn 0.000000 0.998271 0.058787
vn 0.000000 0.998271 0.058787
vn 0.000000 0.998271 0.058787
vn 0.000000 0.998271 0.058787
vn 0.000000 0.058787 -0.998271
vn 0.000000 0.058787 -0.998271
vn 0.000000 0.058787 -0.998271
vn 0.000000 0.058787 -0.998271
vn 1.000000 0.000000 0.000000
vn 1.000000 0.000000 0.000000
vn 1.000000 0.000000 0.000000
vn 1.000000 0.000000 0.000000
vn -1.000000 -0.000000 0.000000
vn -1.000000 -0.000000 0.000000
vn -1.000000 -0.000000 0.000000
vn -1.000000 -0.000000 0.000000
vn 0.000000 -0.136342 0.990662
vn 0.000000 -0.136342 0.990662
vn 0.000000 -0.136342 0.990662
vn 0.000000 -0.136342 0.990662
vn 0.000000 0.960351 0.278793
vn 0.000000 0.960351 0.278793
vn 0.000000 0.960351 0.278793
vn 0.000000 0.960351 0.278793
vn 0.000000 0.117049 -0.993126
vn 0.000000 0.117049 -0.993126
vn 0.000000 0.117049 -0.993126
vn 0.000000 0.117049 -0.993126
vn 1.000000 -0.000000 0.000000
vn 1.000000 -0.000000 0.000000
vn 1.000000 -0.000000 0.000000
vn 1.000000 -0.000000 0.000000
vn -1.000000 0.000000 0.000000
vn -1.000000 0.000000 0.000000
vn -1.000000 0.000000 0.000000
vn -1.000000 0.000000 0.000000
vn 0.000000 0.958239 0.285970
vn 0.000000 0.958239 0.285970
vn 0.000000 0.958239 0.285970
vn 0.000000 0.958239 0.285970
vn 0.000000 0.270256 -0.962788
vn 0.000000 0.270256 -0.962788
vn 0.000000 0.270256 -0.962788
vn 0.000000 0.270256 -0.962788
vn 0.000000 -0.997757 -0.066936
vn 0.000000 -0.997757 -0.066936
vn 0.000000 -0.997757 -0.066936
vn 0.000000 -0.997757 -0.066936
vn 1.000000 0.000000 0.000000
vn 1.000000 0.000000 0.000000
vn 1.000000 0.000000 0.000000
vn 1.000000 0.000000 0.000000
vn -1.000000 0.000000 0.000000
vn -1.000000 0.000000 0.000000
vn -1.000000 0.000000 0.000000
vn -1.000000 0.000000 0.000000
vn 0.000000 0.982654 0.185448
vn 0.000000 0.982654 0.185448
vn 0.000000 0.982654 0.185448
vn 0.000000 0.982654 0.185448
vn 0.000000 0.169349 -0.985556
vn 0.000000 0.169349 -0.985556
vn 0.000000 0.169349 -0.985556
vn 0.000000 0.169349 -0.985556
vn 0.000000 -0.999334 0.036497
vn 0.000000 -0.999334 0.036497
vn 0.000000 -0.999334 0.036497
vn 0.000000 -0.999334 0.036497
vn 1.000000 0.000000 0.000000
vn 1.000000 0.000000 0.000000
vn 1.000000 0.000000 0.000000
vn 1.000000 0.000000 0.000000
vn -1.000000 0.000000 0.000000
vn -1.000000 0.000000 0.000000
vn -1.000000 0.000000 0.000000
vn -1.000000 0.000000 0.000000
vn 0.000000 0.958239 0.285969
vn 0.000000 0.958239 0.285969
vn 0.000000 0.958239 0.285969
vn 0.000000 0.958239 0.285969
vn 0.000000 0.270256 -0.962789
vn 0.000000 0.270256 -0.962789
vn 0.000000 0.270256 -0.962789
vn 0.000000 0.270256 -0.962789
vn 0.000000 -0.997757 -0.066935
vn 0.000000 -0.997757 -0.066935
vn 0.000000 -0.997757 -0.066935
vn 0.000000 -0.997757 -0.066935
vn 1.000000 0.000000 0.000000
vn 1.000000 0.000000 0.000000
vn 1.000000 0.000000 0.000000
vn 1.000000 0.000000 0.000000
vn -1.000000 0.000000 0.000000
vn -1.000000 0.000000 0.000000
vn -1.000000 0.000000 0.000000
vn -1.000000 0.000000 0.000000
s off
g textureEditorIsolateSelectSet polySurface17 polySurface15
usemtl initialShadingGroup
f 1/1/1 2/2/2 4/3/3 3/4/4
f 3/5/5 4/6/6 6/7/7 5/8/8
f 5/9/9 6/10/10 8/11/11 7/12/12
f 2/13/13 8/14/14 6/15/15 4/16/16
f 7/17/17 1/18/18 3/19/19 5/20/20
f 9/21/21 10/22/22 12/23/23 11/24/24
f 11/25/25 12/26/26 14/27/27 13/28/28
f 13/29/29 14/30/30 16/31/31 15/32/32
f 10/33/33 16/34/34 14/35/35 12/36/36
f 15/37/37 9/38/38 11/39/39 13/40/40
f 17/41/41 18/42/42 20/43/43 19/44/44
f 19/45/45 20/46/46 22/47/47 21/48/48
f 21/49/49 22/50/50 24/51/51 23/52/52
f 18/53/53 24/54/54 22/55/55 20/56/56
f 23/57/57 17/58/58 19/59/59 21/60/60
g polySurface17 polySurface15
f 25/61/61 26/62/62 28/63/63 27/64/64
f 29/65/65 30/66/66 32/67/67 31/68/68
f 26/69/69 32/70/70 30/71/71 28/72/72
f 31/73/73 25/74/74 27/75/75 29/76/76
f 28/77/77 30/78/78 29/79/79 27/80/80
f 33/81/81 34/82/82 36/83/83 35/84/84
f 37/85/85 38/86/86 40/87/87 39/88/88
f 34/89/89 40/90/90 38/91/91 36/92/92
f 39/93/93 33/94/94 35/95/95 37/96/96
f 36/97/97 38/98/98 37/99/99 35/100/100
f 41/101/101 42/102/102 44/103/103 43/104/104
f 45/105/105 46/106/106 48/107/107 47/108/108
f 42/109/109 48/110/110 46/111/111 44/112/112
f 47/113/113 41/114/114 43/115/115 45/116/116
f 44/117/117 46/118/118 45/119/119 43/120/120
f 49/121/121 50/122/122 52/123/123 51/124/124
f 53/125/125 54/126/126 56/127/127 55/128/128
f 50/129/129 56/130/130 54/131/131 52/132/132
f 55/133/133 49/134/134 51/135/135 53/136/136
f 52/137/137 54/138/138 53/139/139 51/140/140
f 57/141/141 58/142/142 60/143/143 59/144/144
f 59/145/145 60/146/146 62/147/147 61/148/148
f 61/149/149 62/150/150 64/151/151 63/152/152
f 63/153/153 64/154/154 58/155/155 57/156/156
f 58/157/157 64/158/158 62/159/159 60/160/160
f 63/161/161 57/162/162 59/163/163 61/164/164
f 65/165/165 66/166/166 68/167/167 67/168/168
f 67/169/169 68/170/170 70/171/171 69/172/172
f 69/173/173 70/174/174 72/175/175 71/176/176
f 71/177/177 72/178/178 66/179/179 65/180/180
f 66/181/181 72/182/182 70/183/183 68/184/184
f 71/185/185 65/186/186 67/187/187 69/188/188
f 73/189/189 74/190/190 76/191/191 75/192/192
f 75/193/193 76/194/194 78/195/195 77/196/196
f 77/197/197 78/198/198 80/199/199 79/200/200
f 74/201/201 80/202/202 78/203/203 76/204/204
f 79/205/205 73/206/206 75/207/207 77/208/208
f 81/209/209 82/210/210 84/211/211 83/212/212
f 83/213/213 84/214/214 86/215/215 85/216/216
f 85/217/217 86/218/218 88/219/219 87/220/220
f 82/221/221 88/222/222 86/223/223 84/224/224
f 87/225/225 81/226/226 83/227/227 85/228/228
g textureEditorIsolateSelectSet polySurface17 polySurface15
f 89/229/229 90/230/230 92/231/231 91/232/232
f 91/233/233 92/234/234 94/235/235 93/236/236
f 93/237/237 94/238/238 96/239/239 95/240/240
f 90/241/241 96/242/242 94/243/243 92/244/244
f 95/245/245 89/246/246 91/247/247 93/248/248
f 97/249/249 98/250/250 100/251/251 99/252/252
f 99/253/253 100/254/254 102/255/255 101/256/256
f 101/257/257 102/258/258 104/259/259 103/260/260
f 98/261/261 104/262/262 102/263/263 100/264/264
f 103/265/265 97/266/266 99/267/267 101/268/268
f 105/269/269 106/270/270 108/271/271 107/272/272
f 107/273/273 108/274/274 110/275/275 109/276/276
f 109/277/277 110/278/278 112/279/279 111/280/280
f 106/281/281 112/282/282 110/283/283 108/284/284
f 111/285/285 105/286/286 107/287/287 109/288/288
